<svg width="581" height="85" viewBox="0 0 581 85" fill="none" xmlns="http://www.w3.org/2000/svg">
<line x1="61" y1="29" x2="259" y2="29" stroke="#F5F5F5" stroke-width="12"/>
<line x1="300" y1="29" x2="498" y2="29" stroke="#F5F5F5" stroke-width="12"/>
<g clip-path="url(#clip0_369_6839)">
<path d="M39.1649 4.69434C26.2092 4.69434 15.6943 15.2092 15.6943 28.1649C15.6943 41.1207 26.2092 51.6355 39.1649 51.6355C52.1207 51.6355 62.6355 41.1207 62.6355 28.1649C62.6355 15.2092 52.1207 4.69434 39.1649 4.69434ZM34.4708 39.9002L22.7355 28.1649L26.0449 24.8556L34.4708 33.258L52.285 15.4439L55.5943 18.7767L34.4708 39.9002Z" fill="url(#paint0_linear_369_6839)"/>
</g>
<g clip-path="url(#clip1_369_6839)">
<path d="M278 4.69434C265.044 4.69434 254.529 15.2092 254.529 28.1649C254.529 41.1207 265.044 51.6355 278 51.6355C290.956 51.6355 301.47 41.1207 301.47 28.1649C301.47 15.2092 290.956 4.69434 278 4.69434ZM273.306 39.9002L261.57 28.1649L264.88 24.8556L273.306 33.258L291.12 15.4439L294.429 18.7767L273.306 39.9002Z" fill="url(#paint1_linear_369_6839)"/>
</g>
<g clip-path="url(#clip2_369_6839)">
<path d="M517.165 4.69434C504.209 4.69434 493.694 15.2092 493.694 28.1649C493.694 41.1207 504.209 51.6355 517.165 51.6355C530.121 51.6355 540.636 41.1207 540.636 28.1649C540.636 15.2092 530.121 4.69434 517.165 4.69434ZM512.471 39.9002L500.736 28.1649L504.045 24.8556L512.471 33.258L530.285 15.4439L533.594 18.7767L512.471 39.9002Z" fill="url(#paint2_linear_369_6839)"/>
</g>
<path d="M6.7768 65.25C7.69013 65.25 8.46346 65.3767 9.0968 65.63C9.7368 65.8767 10.2235 66.26 10.5568 66.78C10.8968 67.3 11.0668 67.96 11.0668 68.76C11.0668 69.52 10.9101 70.1567 10.5968 70.67C10.2901 71.1767 9.89346 71.5633 9.4068 71.83C8.9268 72.09 8.4268 72.2333 7.9068 72.26C8.47346 72.2733 9.02346 72.4033 9.5568 72.65C10.0901 72.89 10.5268 73.2767 10.8668 73.81C11.2135 74.3367 11.3868 75.04 11.3868 75.92C11.3868 76.78 11.2135 77.5167 10.8668 78.13C10.5268 78.7367 10.0101 79.2 9.3168 79.52C8.62346 79.84 7.75013 80 6.6968 80H1.8768V65.25H6.7768ZM3.5268 72.15L2.9468 71.57H5.9768C7.04346 71.57 7.87346 71.3567 8.4668 70.93C9.06013 70.4967 9.3568 69.86 9.3568 69.02C9.3568 68.46 9.23346 68.0167 8.9868 67.69C8.74013 67.3567 8.39013 67.1167 7.9368 66.97C7.49013 66.8233 6.9668 66.75 6.3668 66.75H2.7568L3.5268 65.78V72.15ZM6.3668 78.5C7.38013 78.5 8.18013 78.2767 8.7668 77.83C9.35346 77.3833 9.6468 76.7167 9.6468 75.83C9.6468 75.29 9.55013 74.8433 9.3568 74.49C9.16346 74.13 8.90013 73.8467 8.5668 73.64C8.23346 73.4333 7.85013 73.2867 7.4168 73.2C6.99013 73.1067 6.54013 73.06 6.0668 73.06H2.9468L3.5268 72.48V79.47L2.7568 78.5H6.3668ZM19.1752 80.19C18.1086 80.19 17.1652 79.9533 16.3452 79.48C15.5319 79 14.8919 78.3467 14.4252 77.52C13.9652 76.6867 13.7352 75.74 13.7352 74.68C13.7352 73.62 13.9652 72.68 14.4252 71.86C14.8919 71.04 15.5319 70.3967 16.3452 69.93C17.1652 69.4633 18.1086 69.23 19.1752 69.23C20.2419 69.23 21.1819 69.4633 21.9952 69.93C22.8152 70.3967 23.4552 71.04 23.9152 71.86C24.3819 72.68 24.6152 73.62 24.6152 74.68C24.6152 75.74 24.3819 76.6867 23.9152 77.52C23.4552 78.3467 22.8152 79 21.9952 79.48C21.1819 79.9533 20.2419 80.19 19.1752 80.19ZM19.1752 78.63C19.9086 78.63 20.5552 78.4667 21.1152 78.14C21.6752 77.8133 22.1119 77.3533 22.4252 76.76C22.7452 76.1667 22.9052 75.4733 22.9052 74.68C22.9052 73.8867 22.7452 73.2 22.4252 72.62C22.1119 72.0333 21.6752 71.5833 21.1152 71.27C20.5552 70.95 19.9086 70.79 19.1752 70.79C18.4486 70.79 17.8019 70.95 17.2352 71.27C16.6752 71.5833 16.2352 72.0333 15.9152 72.62C15.6019 73.2 15.4452 73.8867 15.4452 74.68C15.4452 75.4733 15.6019 76.1667 15.9152 76.76C16.2352 77.3533 16.6752 77.8133 17.2352 78.14C17.8019 78.4667 18.4486 78.63 19.1752 78.63ZM32.3002 80.19C31.2336 80.19 30.2902 79.9533 29.4702 79.48C28.6569 79 28.0169 78.3467 27.5502 77.52C27.0902 76.6867 26.8602 75.74 26.8602 74.68C26.8602 73.62 27.0902 72.68 27.5502 71.86C28.0169 71.04 28.6569 70.3967 29.4702 69.93C30.2902 69.4633 31.2336 69.23 32.3002 69.23C33.3669 69.23 34.3069 69.4633 35.1202 69.93C35.9402 70.3967 36.5802 71.04 37.0402 71.86C37.5069 72.68 37.7402 73.62 37.7402 74.68C37.7402 75.74 37.5069 76.6867 37.0402 77.52C36.5802 78.3467 35.9402 79 35.1202 79.48C34.3069 79.9533 33.3669 80.19 32.3002 80.19ZM32.3002 78.63C33.0336 78.63 33.6802 78.4667 34.2402 78.14C34.8002 77.8133 35.2369 77.3533 35.5502 76.76C35.8702 76.1667 36.0302 75.4733 36.0302 74.68C36.0302 73.8867 35.8702 73.2 35.5502 72.62C35.2369 72.0333 34.8002 71.5833 34.2402 71.27C33.6802 70.95 33.0336 70.79 32.3002 70.79C31.5736 70.79 30.9269 70.95 30.3602 71.27C29.8002 71.5833 29.3602 72.0333 29.0402 72.62C28.7269 73.2 28.5702 73.8867 28.5702 74.68C28.5702 75.4733 28.7269 76.1667 29.0402 76.76C29.3602 77.3533 29.8002 77.8133 30.3602 78.14C30.9269 78.4667 31.5736 78.63 32.3002 78.63ZM40.3952 80V64.37H42.0152V73.95L41.5252 73.73L46.6052 69.38H48.8052L43.7152 73.86L44.1652 72.99L48.8452 80H47.0152L43.0652 73.93L43.4152 74.13L41.7652 75.56L42.0152 74.75V80H40.3952ZM50.7687 80V69.38H52.4487V80H50.7687ZM51.6187 66.94C51.3053 66.94 51.032 66.8533 50.7987 66.68C50.572 66.5 50.4587 66.2567 50.4587 65.95C50.4587 65.65 50.572 65.4133 50.7987 65.24C51.032 65.06 51.3053 64.97 51.6187 64.97C51.932 64.97 52.202 65.06 52.4287 65.24C52.6553 65.4133 52.7687 65.65 52.7687 65.95C52.7687 66.2567 52.6553 66.5 52.4287 66.68C52.202 66.8533 51.932 66.94 51.6187 66.94ZM63.2101 80V74.91C63.2101 74.6033 63.2101 74.3533 63.2101 74.16C63.2101 73.96 63.2101 73.77 63.2101 73.59C63.2101 73.0367 63.1167 72.5533 62.9301 72.14C62.7434 71.7267 62.4501 71.4067 62.0501 71.18C61.6501 70.9533 61.1267 70.84 60.4801 70.84C59.9134 70.84 59.3867 70.9867 58.9001 71.28C58.4201 71.5667 58.0334 71.9567 57.7401 72.45C57.4534 72.9367 57.3101 73.4833 57.3101 74.09L56.3401 73.72C56.3401 72.8867 56.5434 72.13 56.9501 71.45C57.3634 70.77 57.9101 70.23 58.5901 69.83C59.2767 69.4233 60.0234 69.22 60.8301 69.22C61.6501 69.22 62.3667 69.3767 62.9801 69.69C63.5934 70.0033 64.0667 70.4533 64.4001 71.04C64.7401 71.62 64.9101 72.32 64.9101 73.14C64.9101 73.4333 64.9101 73.7533 64.9101 74.1C64.9101 74.4467 64.9101 74.77 64.9101 75.07V80H63.2101ZM55.6101 80V69.38H57.3101V80H55.6101ZM74.6557 79.35C75.229 79.3967 75.7324 79.5033 76.1657 79.67C76.6057 79.83 76.949 80.0667 77.1957 80.38C77.4424 80.7 77.5657 81.1167 77.5657 81.63C77.5657 82.1967 77.3724 82.6967 76.9857 83.13C76.599 83.57 76.0124 83.9133 75.2257 84.16C74.439 84.4067 73.449 84.53 72.2557 84.53C70.569 84.53 69.2957 84.2833 68.4357 83.79C67.5757 83.3033 67.1457 82.6367 67.1457 81.79C67.1457 81.5233 67.1757 81.2867 67.2357 81.08C67.3024 80.88 67.3757 80.7167 67.4557 80.59L69.0757 80.83C69.0224 80.9033 68.969 81.0133 68.9157 81.16C68.869 81.3133 68.8457 81.49 68.8457 81.69C68.8457 82.2233 69.149 82.5967 69.7557 82.81C70.3624 83.03 71.2224 83.14 72.3357 83.14C73.169 83.14 73.8524 83.0833 74.3857 82.97C74.919 82.8567 75.3157 82.6933 75.5757 82.48C75.8357 82.2667 75.9657 82.0167 75.9657 81.73C75.9657 81.2967 75.7824 81.0267 75.4157 80.92C75.0557 80.82 74.609 80.75 74.0757 80.71L70.0357 80.41C69.3624 80.3567 68.8124 80.15 68.3857 79.79C67.9657 79.4233 67.7557 78.98 67.7557 78.46C67.7557 78.14 67.8324 77.8367 67.9857 77.55C68.1457 77.2633 68.329 77.0233 68.5357 76.83C68.749 76.63 68.939 76.51 69.1057 76.47L70.4457 77.08C70.279 77.1067 70.0724 77.2233 69.8257 77.43C69.5857 77.63 69.4657 77.8667 69.4657 78.14C69.4657 78.3867 69.5624 78.59 69.7557 78.75C69.949 78.9033 70.3324 79.0033 70.9057 79.05L74.6557 79.35ZM76.1257 69.38H77.7257L77.0657 73.56C76.9457 74.34 76.6957 75.0467 76.3157 75.68C75.9357 76.3067 75.4157 76.8067 74.7557 77.18C74.1024 77.5467 73.2924 77.73 72.3257 77.73C71.319 77.73 70.459 77.5467 69.7457 77.18C69.0324 76.8133 68.4857 76.3133 68.1057 75.68C67.7257 75.04 67.5357 74.32 67.5357 73.52C67.5357 72.7067 67.7324 71.9767 68.1257 71.33C68.5257 70.6767 69.079 70.1633 69.7857 69.79C70.4924 69.41 71.3024 69.22 72.2157 69.22C73.0357 69.22 73.7524 69.3633 74.3657 69.65C74.979 69.93 75.4624 70.2833 75.8157 70.71C76.1757 71.1367 76.3757 71.5667 76.4157 72L75.7757 72.04L76.1257 69.38ZM72.3157 76.21C72.9624 76.21 73.5157 76.1033 73.9757 75.89C74.4424 75.6767 74.799 75.3667 75.0457 74.96C75.299 74.5533 75.4257 74.06 75.4257 73.48C75.4257 72.92 75.299 72.4367 75.0457 72.03C74.799 71.6167 74.4424 71.3 73.9757 71.08C73.5157 70.8533 72.9657 70.74 72.3257 70.74C71.7124 70.74 71.169 70.8567 70.6957 71.09C70.229 71.3167 69.8624 71.6367 69.5957 72.05C69.3357 72.4633 69.2057 72.95 69.2057 73.51C69.2057 74.0767 69.329 74.5633 69.5757 74.97C69.829 75.37 70.1857 75.6767 70.6457 75.89C71.1124 76.1033 71.669 76.21 72.3157 76.21Z" fill="#828282"/>
<path d="M224.524 80H222.814V65.25H226.954C228.094 65.25 229.041 65.4633 229.794 65.89C230.548 66.31 231.111 66.8767 231.484 67.59C231.858 68.3033 232.044 69.0967 232.044 69.97C232.044 70.8433 231.851 71.65 231.464 72.39C231.084 73.13 230.514 73.7267 229.754 74.18C229.001 74.6267 228.068 74.85 226.954 74.85H224.524V80ZM224.524 74.22L223.754 73.35H226.744C227.544 73.35 228.208 73.21 228.734 72.93C229.268 72.6433 229.664 72.2467 229.924 71.74C230.191 71.2333 230.324 70.6433 230.324 69.97C230.324 69.29 230.198 68.71 229.944 68.23C229.691 67.75 229.301 67.3833 228.774 67.13C228.248 66.8767 227.571 66.75 226.744 66.75H223.754L224.524 65.78V74.22ZM237.621 80.2C236.814 80.2 236.108 80.0733 235.501 79.82C234.901 79.5667 234.434 79.2033 234.101 78.73C233.768 78.25 233.601 77.6767 233.601 77.01C233.601 76.3167 233.781 75.74 234.141 75.28C234.501 74.8133 235.008 74.45 235.661 74.19C236.314 73.93 237.074 73.7567 237.941 73.67C239.248 73.5367 240.178 73.4067 240.731 73.28C241.284 73.1467 241.561 72.9333 241.561 72.64C241.561 72.6333 241.561 72.63 241.561 72.63C241.561 72.6233 241.561 72.6167 241.561 72.61C241.561 71.9967 241.311 71.54 240.811 71.24C240.311 70.9333 239.588 70.78 238.641 70.78C237.654 70.78 236.888 70.9533 236.341 71.3C235.794 71.64 235.521 72.1933 235.521 72.96H233.841C233.841 72.1667 234.044 71.4933 234.451 70.94C234.858 70.38 235.421 69.9533 236.141 69.66C236.868 69.3667 237.704 69.22 238.651 69.22C239.518 69.22 240.298 69.3533 240.991 69.62C241.691 69.88 242.244 70.27 242.651 70.79C243.064 71.3033 243.271 71.94 243.271 72.7C243.271 72.84 243.271 72.98 243.271 73.12C243.271 73.2533 243.271 73.39 243.271 73.53V78C243.271 78.2333 243.281 78.46 243.301 78.68C243.321 78.9 243.354 79.0933 243.401 79.26C243.461 79.46 243.528 79.6233 243.601 79.75C243.674 79.87 243.734 79.9533 243.781 80H242.071C242.038 79.9667 241.988 79.89 241.921 79.77C241.854 79.6433 241.791 79.4967 241.731 79.33C241.684 79.1967 241.648 79.03 241.621 78.83C241.594 78.6233 241.581 78.41 241.581 78.19L241.861 78.38C241.654 78.74 241.351 79.0567 240.951 79.33C240.558 79.6033 240.081 79.8167 239.521 79.97C238.961 80.1233 238.328 80.2 237.621 80.2ZM237.891 78.67C238.578 78.67 239.198 78.5667 239.751 78.36C240.304 78.1467 240.744 77.8333 241.071 77.42C241.398 77.0067 241.561 76.4933 241.561 75.88V73.77L241.941 74.41C241.514 74.5767 240.981 74.7133 240.341 74.82C239.708 74.92 239.044 75.0033 238.351 75.07C237.344 75.1633 236.584 75.34 236.071 75.6C235.564 75.86 235.311 76.2967 235.311 76.91C235.311 77.49 235.521 77.93 235.941 78.23C236.361 78.5233 237.011 78.67 237.891 78.67ZM252.878 79.35C253.452 79.3967 253.955 79.5033 254.388 79.67C254.828 79.83 255.172 80.0667 255.418 80.38C255.665 80.7 255.788 81.1167 255.788 81.63C255.788 82.1967 255.595 82.6967 255.208 83.13C254.822 83.57 254.235 83.9133 253.448 84.16C252.662 84.4067 251.672 84.53 250.478 84.53C248.792 84.53 247.518 84.2833 246.658 83.79C245.798 83.3033 245.368 82.6367 245.368 81.79C245.368 81.5233 245.398 81.2867 245.458 81.08C245.525 80.88 245.598 80.7167 245.678 80.59L247.298 80.83C247.245 80.9033 247.192 81.0133 247.138 81.16C247.092 81.3133 247.068 81.49 247.068 81.69C247.068 82.2233 247.372 82.5967 247.978 82.81C248.585 83.03 249.445 83.14 250.558 83.14C251.392 83.14 252.075 83.0833 252.608 82.97C253.142 82.8567 253.538 82.6933 253.798 82.48C254.058 82.2667 254.188 82.0167 254.188 81.73C254.188 81.2967 254.005 81.0267 253.638 80.92C253.278 80.82 252.832 80.75 252.298 80.71L248.258 80.41C247.585 80.3567 247.035 80.15 246.608 79.79C246.188 79.4233 245.978 78.98 245.978 78.46C245.978 78.14 246.055 77.8367 246.208 77.55C246.368 77.2633 246.552 77.0233 246.758 76.83C246.972 76.63 247.162 76.51 247.328 76.47L248.668 77.08C248.502 77.1067 248.295 77.2233 248.048 77.43C247.808 77.63 247.688 77.8667 247.688 78.14C247.688 78.3867 247.785 78.59 247.978 78.75C248.172 78.9033 248.555 79.0033 249.128 79.05L252.878 79.35ZM254.348 69.38H255.948L255.288 73.56C255.168 74.34 254.918 75.0467 254.538 75.68C254.158 76.3067 253.638 76.8067 252.978 77.18C252.325 77.5467 251.515 77.73 250.548 77.73C249.542 77.73 248.682 77.5467 247.968 77.18C247.255 76.8133 246.708 76.3133 246.328 75.68C245.948 75.04 245.758 74.32 245.758 73.52C245.758 72.7067 245.955 71.9767 246.348 71.33C246.748 70.6767 247.302 70.1633 248.008 69.79C248.715 69.41 249.525 69.22 250.438 69.22C251.258 69.22 251.975 69.3633 252.588 69.65C253.202 69.93 253.685 70.2833 254.038 70.71C254.398 71.1367 254.598 71.5667 254.638 72L253.998 72.04L254.348 69.38ZM250.538 76.21C251.185 76.21 251.738 76.1033 252.198 75.89C252.665 75.6767 253.022 75.3667 253.268 74.96C253.522 74.5533 253.648 74.06 253.648 73.48C253.648 72.92 253.522 72.4367 253.268 72.03C253.022 71.6167 252.665 71.3 252.198 71.08C251.738 70.8533 251.188 70.74 250.548 70.74C249.935 70.74 249.392 70.8567 248.918 71.09C248.452 71.3167 248.085 71.6367 247.818 72.05C247.558 72.4633 247.428 72.95 247.428 73.51C247.428 74.0767 247.552 74.5633 247.798 74.97C248.052 75.37 248.408 75.6767 248.868 75.89C249.335 76.1033 249.892 76.21 250.538 76.21ZM261.488 80.2C260.681 80.2 259.975 80.0733 259.368 79.82C258.768 79.5667 258.301 79.2033 257.968 78.73C257.635 78.25 257.468 77.6767 257.468 77.01C257.468 76.3167 257.648 75.74 258.008 75.28C258.368 74.8133 258.875 74.45 259.528 74.19C260.181 73.93 260.941 73.7567 261.808 73.67C263.115 73.5367 264.045 73.4067 264.598 73.28C265.151 73.1467 265.428 72.9333 265.428 72.64C265.428 72.6333 265.428 72.63 265.428 72.63C265.428 72.6233 265.428 72.6167 265.428 72.61C265.428 71.9967 265.178 71.54 264.678 71.24C264.178 70.9333 263.455 70.78 262.508 70.78C261.521 70.78 260.755 70.9533 260.208 71.3C259.661 71.64 259.388 72.1933 259.388 72.96H257.708C257.708 72.1667 257.911 71.4933 258.318 70.94C258.725 70.38 259.288 69.9533 260.008 69.66C260.735 69.3667 261.571 69.22 262.518 69.22C263.385 69.22 264.165 69.3533 264.858 69.62C265.558 69.88 266.111 70.27 266.518 70.79C266.931 71.3033 267.138 71.94 267.138 72.7C267.138 72.84 267.138 72.98 267.138 73.12C267.138 73.2533 267.138 73.39 267.138 73.53V78C267.138 78.2333 267.148 78.46 267.168 78.68C267.188 78.9 267.221 79.0933 267.268 79.26C267.328 79.46 267.395 79.6233 267.468 79.75C267.541 79.87 267.601 79.9533 267.648 80H265.938C265.905 79.9667 265.855 79.89 265.788 79.77C265.721 79.6433 265.658 79.4967 265.598 79.33C265.551 79.1967 265.515 79.03 265.488 78.83C265.461 78.6233 265.448 78.41 265.448 78.19L265.728 78.38C265.521 78.74 265.218 79.0567 264.818 79.33C264.425 79.6033 263.948 79.8167 263.388 79.97C262.828 80.1233 262.195 80.2 261.488 80.2ZM261.758 78.67C262.445 78.67 263.065 78.5667 263.618 78.36C264.171 78.1467 264.611 77.8333 264.938 77.42C265.265 77.0067 265.428 76.4933 265.428 75.88V73.77L265.808 74.41C265.381 74.5767 264.848 74.7133 264.208 74.82C263.575 74.92 262.911 75.0033 262.218 75.07C261.211 75.1633 260.451 75.34 259.938 75.6C259.431 75.86 259.178 76.2967 259.178 76.91C259.178 77.49 259.388 77.93 259.808 78.23C260.228 78.5233 260.878 78.67 261.758 78.67ZM276.496 80V75.31C276.496 74.8967 276.496 74.54 276.496 74.24C276.496 73.9333 276.496 73.6767 276.496 73.47C276.496 73.21 276.476 72.93 276.436 72.63C276.402 72.3233 276.319 72.0367 276.186 71.77C276.052 71.4967 275.842 71.2733 275.556 71.1C275.276 70.9267 274.886 70.84 274.386 70.84C273.879 70.84 273.452 70.94 273.106 71.14C272.759 71.3333 272.479 71.59 272.266 71.91C272.052 72.23 271.899 72.5833 271.806 72.97C271.712 73.35 271.666 73.7267 271.666 74.1L270.706 73.71C270.706 72.91 270.872 72.17 271.206 71.49C271.539 70.81 272.006 70.2633 272.606 69.85C273.212 69.43 273.922 69.22 274.736 69.22C275.542 69.22 276.199 69.3833 276.706 69.71C277.212 70.0367 277.586 70.4867 277.826 71.06C278.066 71.6333 278.186 72.2933 278.186 73.04C278.186 73.3067 278.186 73.65 278.186 74.07C278.186 74.4833 278.186 74.9567 278.186 75.49V80H276.496ZM269.966 80V69.38H271.666V80H269.966ZM283.006 80V75.31C283.006 74.8567 283.006 74.4833 283.006 74.19C283.006 73.89 283.006 73.6367 283.006 73.43C283.006 73.17 282.989 72.89 282.956 72.59C282.922 72.29 282.839 72.01 282.706 71.75C282.572 71.4833 282.359 71.2667 282.066 71.1C281.779 70.9267 281.376 70.84 280.856 70.84C280.342 70.84 279.912 70.9367 279.566 71.13C279.226 71.3233 278.952 71.5767 278.746 71.89C278.546 72.2033 278.402 72.5433 278.316 72.91C278.229 73.27 278.186 73.6167 278.186 73.95L277.226 73.58C277.226 72.82 277.386 72.11 277.706 71.45C278.032 70.7833 278.492 70.2467 279.086 69.84C279.686 69.4267 280.396 69.22 281.216 69.22C281.982 69.22 282.622 69.37 283.136 69.67C283.656 69.97 284.046 70.3933 284.306 70.94C284.572 71.48 284.706 72.1233 284.706 72.87C284.706 73.15 284.706 73.4967 284.706 73.91C284.706 74.3233 284.706 74.79 284.706 75.31V80H283.006ZM288.211 75.37V73.85H296.421L296.121 74.35C296.121 74.31 296.121 74.2733 296.121 74.24C296.121 74.2 296.121 74.1633 296.121 74.13C296.121 73.5167 295.991 72.9567 295.731 72.45C295.478 71.9367 295.098 71.5267 294.591 71.22C294.084 70.9133 293.458 70.76 292.711 70.76C291.958 70.76 291.294 70.92 290.721 71.24C290.148 71.56 289.701 72.0133 289.381 72.6C289.061 73.18 288.901 73.8733 288.901 74.68C288.901 75.5 289.054 76.2067 289.361 76.8C289.674 77.3933 290.118 77.85 290.691 78.17C291.264 78.49 291.944 78.65 292.731 78.65C293.291 78.65 293.778 78.5933 294.191 78.48C294.604 78.36 294.944 78.2033 295.211 78.01C295.484 77.81 295.691 77.5933 295.831 77.36C295.971 77.1267 296.054 76.8933 296.081 76.66H297.781C297.748 77.0867 297.614 77.51 297.381 77.93C297.148 78.35 296.818 78.7333 296.391 79.08C295.964 79.42 295.441 79.6933 294.821 79.9C294.201 80.1067 293.488 80.21 292.681 80.21C291.614 80.21 290.674 79.9767 289.861 79.51C289.048 79.0433 288.408 78.3967 287.941 77.57C287.481 76.7433 287.251 75.7933 287.251 74.72C287.251 73.6333 287.484 72.68 287.951 71.86C288.418 71.0333 289.061 70.3867 289.881 69.92C290.701 69.4533 291.638 69.22 292.691 69.22C293.764 69.22 294.694 69.4533 295.481 69.92C296.268 70.3867 296.874 71.0267 297.301 71.84C297.728 72.6467 297.941 73.5667 297.941 74.6C297.941 74.7067 297.938 74.8467 297.931 75.02C297.924 75.1933 297.914 75.31 297.901 75.37H288.211ZM308.191 80V74.91C308.191 74.6033 308.191 74.3533 308.191 74.16C308.191 73.96 308.191 73.77 308.191 73.59C308.191 73.0367 308.097 72.5533 307.911 72.14C307.724 71.7267 307.431 71.4067 307.031 71.18C306.631 70.9533 306.107 70.84 305.461 70.84C304.894 70.84 304.367 70.9867 303.881 71.28C303.401 71.5667 303.014 71.9567 302.721 72.45C302.434 72.9367 302.291 73.4833 302.291 74.09L301.321 73.72C301.321 72.8867 301.524 72.13 301.931 71.45C302.344 70.77 302.891 70.23 303.571 69.83C304.257 69.4233 305.004 69.22 305.811 69.22C306.631 69.22 307.347 69.3767 307.961 69.69C308.574 70.0033 309.047 70.4533 309.381 71.04C309.721 71.62 309.891 72.32 309.891 73.14C309.891 73.4333 309.891 73.7533 309.891 74.1C309.891 74.4467 309.891 74.77 309.891 75.07V80H308.191ZM300.591 80V69.38H302.291V80H300.591ZM316.763 80.16C316.437 80.16 316.117 80.1233 315.803 80.05C315.49 79.9767 315.207 79.8467 314.953 79.66C314.707 79.4667 314.51 79.1967 314.363 78.85C314.217 78.4967 314.143 78.0433 314.143 77.49C314.143 77.35 314.143 77.2067 314.143 77.06C314.143 76.9067 314.143 76.7467 314.143 76.58V70.88H311.553V69.38H313.213C313.44 69.38 313.617 69.3733 313.743 69.36C313.87 69.34 313.96 69.2967 314.013 69.23C314.073 69.1567 314.11 69.0467 314.123 68.9C314.137 68.7467 314.143 68.5367 314.143 68.27V65.86H315.853V69.38H319.173V70.88H315.853V76.03C315.853 76.1767 315.853 76.32 315.853 76.46C315.853 76.6 315.853 76.73 315.853 76.85C315.853 77.4167 315.92 77.86 316.053 78.18C316.193 78.5 316.503 78.66 316.983 78.66C317.177 78.66 317.36 78.6433 317.533 78.61C317.707 78.5767 317.837 78.5433 317.923 78.51V79.99C317.81 80.03 317.65 80.0667 317.443 80.1C317.243 80.14 317.017 80.16 316.763 80.16ZM326.031 80.19C324.964 80.19 324.021 79.9533 323.201 79.48C322.387 79 321.747 78.3467 321.281 77.52C320.821 76.6867 320.591 75.74 320.591 74.68C320.591 73.62 320.821 72.68 321.281 71.86C321.747 71.04 322.387 70.3967 323.201 69.93C324.021 69.4633 324.964 69.23 326.031 69.23C327.097 69.23 328.037 69.4633 328.851 69.93C329.671 70.3967 330.311 71.04 330.771 71.86C331.237 72.68 331.471 73.62 331.471 74.68C331.471 75.74 331.237 76.6867 330.771 77.52C330.311 78.3467 329.671 79 328.851 79.48C328.037 79.9533 327.097 80.19 326.031 80.19ZM326.031 78.63C326.764 78.63 327.411 78.4667 327.971 78.14C328.531 77.8133 328.967 77.3533 329.281 76.76C329.601 76.1667 329.761 75.4733 329.761 74.68C329.761 73.8867 329.601 73.2 329.281 72.62C328.967 72.0333 328.531 71.5833 327.971 71.27C327.411 70.95 326.764 70.79 326.031 70.79C325.304 70.79 324.657 70.95 324.091 71.27C323.531 71.5833 323.091 72.0333 322.771 72.62C322.457 73.2 322.301 73.8867 322.301 74.68C322.301 75.4733 322.457 76.1667 322.771 76.76C323.091 77.3533 323.531 77.8133 324.091 78.14C324.657 78.4667 325.304 78.63 326.031 78.63Z" fill="#828282"/>
<path d="M465.49 74.87C465.49 75.4633 465.38 76.0733 465.16 76.7C464.94 77.32 464.607 77.8967 464.16 78.43C463.72 78.9567 463.163 79.3833 462.49 79.71C461.817 80.0367 461.027 80.2 460.12 80.2C458.873 80.2 457.813 79.8767 456.94 79.23C456.067 78.5767 455.4 77.68 454.94 76.54C454.487 75.4 454.26 74.0967 454.26 72.63C454.26 71.1567 454.487 69.8533 454.94 68.72C455.4 67.58 456.067 66.6867 456.94 66.04C457.813 65.3933 458.873 65.07 460.12 65.07C461.16 65.07 462.047 65.2833 462.78 65.71C463.513 66.1367 464.097 66.68 464.53 67.34C464.963 68 465.247 68.68 465.38 69.38C465.453 69.7333 465.49 70.0667 465.49 70.38H463.78C463.78 70.2 463.763 69.9933 463.73 69.76C463.65 69.2 463.457 68.6833 463.15 68.21C462.85 67.73 462.447 67.3467 461.94 67.06C461.433 66.7667 460.827 66.62 460.12 66.62C459.293 66.62 458.57 66.8467 457.95 67.3C457.337 67.7533 456.857 68.4267 456.51 69.32C456.17 70.2133 456 71.3167 456 72.63C456 73.9433 456.17 75.05 456.51 75.95C456.857 76.8433 457.337 77.52 457.95 77.98C458.57 78.4333 459.293 78.66 460.12 78.66C460.713 78.66 461.237 78.5533 461.69 78.34C462.143 78.12 462.523 77.83 462.83 77.47C463.143 77.1033 463.38 76.6967 463.54 76.25C463.7 75.7967 463.78 75.3367 463.78 74.87H465.49ZM473.052 80.19C471.986 80.19 471.042 79.9533 470.222 79.48C469.409 79 468.769 78.3467 468.302 77.52C467.842 76.6867 467.612 75.74 467.612 74.68C467.612 73.62 467.842 72.68 468.302 71.86C468.769 71.04 469.409 70.3967 470.222 69.93C471.042 69.4633 471.986 69.23 473.052 69.23C474.119 69.23 475.059 69.4633 475.872 69.93C476.692 70.3967 477.332 71.04 477.792 71.86C478.259 72.68 478.492 73.62 478.492 74.68C478.492 75.74 478.259 76.6867 477.792 77.52C477.332 78.3467 476.692 79 475.872 79.48C475.059 79.9533 474.119 80.19 473.052 80.19ZM473.052 78.63C473.786 78.63 474.432 78.4667 474.992 78.14C475.552 77.8133 475.989 77.3533 476.302 76.76C476.622 76.1667 476.782 75.4733 476.782 74.68C476.782 73.8867 476.622 73.2 476.302 72.62C475.989 72.0333 475.552 71.5833 474.992 71.27C474.432 70.95 473.786 70.79 473.052 70.79C472.326 70.79 471.679 70.95 471.112 71.27C470.552 71.5833 470.112 72.0333 469.792 72.62C469.479 73.2 469.322 73.8867 469.322 74.68C469.322 75.4733 469.479 76.1667 469.792 76.76C470.112 77.3533 470.552 77.8133 471.112 78.14C471.679 78.4667 472.326 78.63 473.052 78.63ZM488.747 80V74.91C488.747 74.6033 488.747 74.3533 488.747 74.16C488.747 73.96 488.747 73.77 488.747 73.59C488.747 73.0367 488.654 72.5533 488.467 72.14C488.281 71.7267 487.987 71.4067 487.587 71.18C487.187 70.9533 486.664 70.84 486.017 70.84C485.451 70.84 484.924 70.9867 484.437 71.28C483.957 71.5667 483.571 71.9567 483.277 72.45C482.991 72.9367 482.847 73.4833 482.847 74.09L481.877 73.72C481.877 72.8867 482.081 72.13 482.487 71.45C482.901 70.77 483.447 70.23 484.127 69.83C484.814 69.4233 485.561 69.22 486.367 69.22C487.187 69.22 487.904 69.3767 488.517 69.69C489.131 70.0033 489.604 70.4533 489.937 71.04C490.277 71.62 490.447 72.32 490.447 73.14C490.447 73.4333 490.447 73.7533 490.447 74.1C490.447 74.4467 490.447 74.77 490.447 75.07V80H488.747ZM481.147 80V69.38H482.847V80H481.147ZM494.723 80V70.88H492.403V69.38H494.723V68.01C494.723 67.5367 494.776 67.1033 494.883 66.71C494.996 66.31 495.156 65.9567 495.363 65.65C495.576 65.3433 495.833 65.0833 496.133 64.87C496.433 64.6567 496.773 64.4967 497.153 64.39C497.539 64.2767 497.959 64.22 498.413 64.22C498.739 64.22 498.999 64.24 499.193 64.28C499.386 64.32 499.516 64.3567 499.583 64.39V65.89C499.503 65.8633 499.369 65.8333 499.183 65.8C498.996 65.7667 498.796 65.75 498.583 65.75C498.129 65.75 497.759 65.82 497.473 65.96C497.193 66.1 496.976 66.2933 496.823 66.54C496.669 66.78 496.563 67.0533 496.503 67.36C496.449 67.6667 496.423 67.9867 496.423 68.32V69.38H499.523V70.88H496.423V80H494.723ZM501.593 80V69.38H503.273V80H501.593ZM502.443 66.94C502.129 66.94 501.856 66.8533 501.623 66.68C501.396 66.5 501.283 66.2567 501.283 65.95C501.283 65.65 501.396 65.4133 501.623 65.24C501.856 65.06 502.129 64.97 502.443 64.97C502.756 64.97 503.026 65.06 503.253 65.24C503.479 65.4133 503.593 65.65 503.593 65.95C503.593 66.2567 503.479 66.5 503.253 66.68C503.026 66.8533 502.756 66.94 502.443 66.94ZM506.44 80V69.38H508.14V72.64L507.58 72.44C507.62 72.0467 507.72 71.66 507.88 71.28C508.04 70.8933 508.26 70.5467 508.54 70.24C508.827 69.9267 509.183 69.68 509.61 69.5C510.037 69.3133 510.537 69.22 511.11 69.22C511.537 69.22 511.883 69.2567 512.15 69.33C512.423 69.3967 512.593 69.45 512.66 69.49L512.22 71.16C512.153 71.1133 512.017 71.0533 511.81 70.98C511.61 70.9067 511.323 70.87 510.95 70.87C510.397 70.87 509.937 70.97 509.57 71.17C509.21 71.37 508.923 71.6367 508.71 71.97C508.503 72.2967 508.357 72.6533 508.27 73.04C508.183 73.4267 508.14 73.81 508.14 74.19V80H506.44ZM521.017 80V75.31C521.017 74.8967 521.017 74.54 521.017 74.24C521.017 73.9333 521.017 73.6767 521.017 73.47C521.017 73.21 520.997 72.93 520.957 72.63C520.924 72.3233 520.84 72.0367 520.707 71.77C520.574 71.4967 520.364 71.2733 520.077 71.1C519.797 70.9267 519.407 70.84 518.907 70.84C518.4 70.84 517.974 70.94 517.627 71.14C517.28 71.3333 517 71.59 516.787 71.91C516.574 72.23 516.42 72.5833 516.327 72.97C516.234 73.35 516.187 73.7267 516.187 74.1L515.227 73.71C515.227 72.91 515.394 72.17 515.727 71.49C516.06 70.81 516.527 70.2633 517.127 69.85C517.734 69.43 518.444 69.22 519.257 69.22C520.064 69.22 520.72 69.3833 521.227 69.71C521.734 70.0367 522.107 70.4867 522.347 71.06C522.587 71.6333 522.707 72.2933 522.707 73.04C522.707 73.3067 522.707 73.65 522.707 74.07C522.707 74.4833 522.707 74.9567 522.707 75.49V80H521.017ZM514.487 80V69.38H516.187V80H514.487ZM527.527 80V75.31C527.527 74.8567 527.527 74.4833 527.527 74.19C527.527 73.89 527.527 73.6367 527.527 73.43C527.527 73.17 527.51 72.89 527.477 72.59C527.444 72.29 527.36 72.01 527.227 71.75C527.094 71.4833 526.88 71.2667 526.587 71.1C526.3 70.9267 525.897 70.84 525.377 70.84C524.864 70.84 524.434 70.9367 524.087 71.13C523.747 71.3233 523.474 71.5767 523.267 71.89C523.067 72.2033 522.924 72.5433 522.837 72.91C522.75 73.27 522.707 73.6167 522.707 73.95L521.747 73.58C521.747 72.82 521.907 72.11 522.227 71.45C522.554 70.7833 523.014 70.2467 523.607 69.84C524.207 69.4267 524.917 69.22 525.737 69.22C526.504 69.22 527.144 69.37 527.657 69.67C528.177 69.97 528.567 70.3933 528.827 70.94C529.094 71.48 529.227 72.1233 529.227 72.87C529.227 73.15 529.227 73.4967 529.227 73.91C529.227 74.3233 529.227 74.79 529.227 75.31V80H527.527ZM535.892 80.2C535.086 80.2 534.379 80.0733 533.772 79.82C533.172 79.5667 532.706 79.2033 532.372 78.73C532.039 78.25 531.872 77.6767 531.872 77.01C531.872 76.3167 532.052 75.74 532.412 75.28C532.772 74.8133 533.279 74.45 533.932 74.19C534.586 73.93 535.346 73.7567 536.212 73.67C537.519 73.5367 538.449 73.4067 539.002 73.28C539.556 73.1467 539.832 72.9333 539.832 72.64C539.832 72.6333 539.832 72.63 539.832 72.63C539.832 72.6233 539.832 72.6167 539.832 72.61C539.832 71.9967 539.582 71.54 539.082 71.24C538.582 70.9333 537.859 70.78 536.912 70.78C535.926 70.78 535.159 70.9533 534.612 71.3C534.066 71.64 533.792 72.1933 533.792 72.96H532.112C532.112 72.1667 532.316 71.4933 532.722 70.94C533.129 70.38 533.692 69.9533 534.412 69.66C535.139 69.3667 535.976 69.22 536.922 69.22C537.789 69.22 538.569 69.3533 539.262 69.62C539.962 69.88 540.516 70.27 540.922 70.79C541.336 71.3033 541.542 71.94 541.542 72.7C541.542 72.84 541.542 72.98 541.542 73.12C541.542 73.2533 541.542 73.39 541.542 73.53V78C541.542 78.2333 541.552 78.46 541.572 78.68C541.592 78.9 541.626 79.0933 541.672 79.26C541.732 79.46 541.799 79.6233 541.872 79.75C541.946 79.87 542.006 79.9533 542.052 80H540.342C540.309 79.9667 540.259 79.89 540.192 79.77C540.126 79.6433 540.062 79.4967 540.002 79.33C539.956 79.1967 539.919 79.03 539.892 78.83C539.866 78.6233 539.852 78.41 539.852 78.19L540.132 78.38C539.926 78.74 539.622 79.0567 539.222 79.33C538.829 79.6033 538.352 79.8167 537.792 79.97C537.232 80.1233 536.599 80.2 535.892 80.2ZM536.162 78.67C536.849 78.67 537.469 78.5667 538.022 78.36C538.576 78.1467 539.016 77.8333 539.342 77.42C539.669 77.0067 539.832 76.4933 539.832 75.88V73.77L540.212 74.41C539.786 74.5767 539.252 74.7133 538.612 74.82C537.979 74.92 537.316 75.0033 536.622 75.07C535.616 75.1633 534.856 75.34 534.342 75.6C533.836 75.86 533.582 76.2967 533.582 76.91C533.582 77.49 533.792 77.93 534.212 78.23C534.632 78.5233 535.282 78.67 536.162 78.67ZM550.15 81C550.377 81 550.593 81.0533 550.8 81.16C551.007 81.2667 551.177 81.4267 551.31 81.64C551.443 81.86 551.51 82.14 551.51 82.48C551.51 82.88 551.4 83.21 551.18 83.47C550.96 83.73 550.673 83.9233 550.32 84.05C549.967 84.1833 549.587 84.25 549.18 84.25C548.807 84.25 548.46 84.2067 548.14 84.12C547.82 84.0333 547.603 83.95 547.49 83.87L547.86 83.16C547.953 83.22 548.123 83.2967 548.37 83.39C548.623 83.4833 548.917 83.53 549.25 83.53C549.65 83.53 549.987 83.4367 550.26 83.25C550.54 83.0633 550.68 82.7967 550.68 82.45C550.68 82.1633 550.603 81.9533 550.45 81.82C550.303 81.6933 550.113 81.63 549.88 81.63C549.713 81.63 549.54 81.6633 549.36 81.73C549.18 81.8033 549.043 81.8967 548.95 82.01L548.18 81.78L548.87 80H549.76L549.14 81.62L548.86 81.56C548.92 81.42 549.083 81.29 549.35 81.17C549.617 81.0567 549.883 81 550.15 81ZM549.41 80.2C548.397 80.2 547.477 79.98 546.65 79.54C545.823 79.0933 545.167 78.4567 544.68 77.63C544.2 76.8033 543.96 75.82 543.96 74.68C543.96 73.54 544.2 72.5633 544.68 71.75C545.167 70.93 545.823 70.3033 546.65 69.87C547.477 69.4367 548.397 69.22 549.41 69.22C550.183 69.22 550.873 69.34 551.48 69.58C552.087 69.8133 552.6 70.1267 553.02 70.52C553.44 70.9133 553.76 71.3467 553.98 71.82C554.207 72.2867 554.32 72.7533 554.32 73.22C554.32 73.2267 554.32 73.2367 554.32 73.25C554.32 73.2633 554.32 73.2767 554.32 73.29H552.63C552.63 73.2567 552.627 73.22 552.62 73.18C552.613 73.1333 552.607 73.0867 552.6 73.04C552.547 72.5933 552.377 72.2033 552.09 71.87C551.803 71.53 551.43 71.2633 550.97 71.07C550.51 70.8767 549.987 70.78 549.4 70.78C548.74 70.78 548.127 70.9233 547.56 71.21C547 71.49 546.547 71.92 546.2 72.5C545.86 73.0733 545.69 73.8 545.69 74.68C545.69 75.5533 545.86 76.2833 546.2 76.87C546.54 77.4567 546.99 77.9 547.55 78.2C548.117 78.4933 548.733 78.64 549.4 78.64C550.12 78.64 550.713 78.5267 551.18 78.3C551.647 78.0733 551.997 77.7733 552.23 77.4C552.47 77.02 552.603 76.6133 552.63 76.18H554.32C554.32 76.66 554.213 77.14 554 77.62C553.787 78.0933 553.473 78.5267 553.06 78.92C552.647 79.3067 552.133 79.6167 551.52 79.85C550.913 80.0833 550.21 80.2 549.41 80.2ZM560.678 80.2C559.871 80.2 559.164 80.0733 558.558 79.82C557.958 79.5667 557.491 79.2033 557.158 78.73C556.824 78.25 556.658 77.6767 556.658 77.01C556.658 76.3167 556.838 75.74 557.198 75.28C557.558 74.8133 558.064 74.45 558.718 74.19C559.371 73.93 560.131 73.7567 560.998 73.67C562.304 73.5367 563.234 73.4067 563.788 73.28C564.341 73.1467 564.618 72.9333 564.618 72.64C564.618 72.6333 564.618 72.63 564.618 72.63C564.618 72.6233 564.618 72.6167 564.618 72.61C564.618 71.9967 564.368 71.54 563.868 71.24C563.368 70.9333 562.644 70.78 561.698 70.78C560.711 70.78 559.944 70.9533 559.398 71.3C558.851 71.64 558.578 72.1933 558.578 72.96H556.898C556.898 72.1667 557.101 71.4933 557.508 70.94C557.914 70.38 558.478 69.9533 559.198 69.66C559.924 69.3667 560.761 69.22 561.708 69.22C562.574 69.22 563.354 69.3533 564.048 69.62C564.748 69.88 565.301 70.27 565.708 70.79C566.121 71.3033 566.328 71.94 566.328 72.7C566.328 72.84 566.328 72.98 566.328 73.12C566.328 73.2533 566.328 73.39 566.328 73.53V78C566.328 78.2333 566.338 78.46 566.358 78.68C566.378 78.9 566.411 79.0933 566.457 79.26C566.518 79.46 566.584 79.6233 566.658 79.75C566.731 79.87 566.791 79.9533 566.838 80H565.128C565.094 79.9667 565.044 79.89 564.978 79.77C564.911 79.6433 564.848 79.4967 564.788 79.33C564.741 79.1967 564.704 79.03 564.678 78.83C564.651 78.6233 564.638 78.41 564.638 78.19L564.918 78.38C564.711 78.74 564.408 79.0567 564.008 79.33C563.614 79.6033 563.138 79.8167 562.578 79.97C562.018 80.1233 561.384 80.2 560.678 80.2ZM560.947 78.67C561.634 78.67 562.254 78.5667 562.808 78.36C563.361 78.1467 563.801 77.8333 564.128 77.42C564.454 77.0067 564.618 76.4933 564.618 75.88V73.77L564.998 74.41C564.571 74.5767 564.038 74.7133 563.398 74.82C562.764 74.92 562.101 75.0033 561.408 75.07C560.401 75.1633 559.641 75.34 559.128 75.6C558.621 75.86 558.368 76.2967 558.368 76.91C558.368 77.49 558.578 77.93 558.998 78.23C559.418 78.5233 560.068 78.67 560.947 78.67ZM564.678 65.49C564.671 65.69 564.611 65.9167 564.498 66.17C564.391 66.4167 564.221 66.6333 563.988 66.82C563.754 67.0067 563.444 67.1 563.058 67.1C562.758 67.1 562.498 67.04 562.278 66.92C562.058 66.7933 561.861 66.6667 561.688 66.54C561.541 66.4333 561.384 66.3333 561.218 66.24C561.058 66.1467 560.871 66.1 560.658 66.1C560.384 66.1 560.198 66.18 560.098 66.34C559.998 66.5 559.941 66.6633 559.928 66.83H558.928C558.941 66.61 559.011 66.3733 559.138 66.12C559.271 65.8667 559.464 65.65 559.718 65.47C559.971 65.2833 560.284 65.19 560.658 65.19C560.964 65.19 561.221 65.25 561.428 65.37C561.641 65.4833 561.824 65.6 561.978 65.72C562.138 65.84 562.301 65.95 562.468 66.05C562.634 66.15 562.811 66.2 562.998 66.2C563.271 66.2 563.451 66.1233 563.538 65.97C563.624 65.8167 563.674 65.6567 563.688 65.49H564.678ZM574.185 80.19C573.118 80.19 572.175 79.9533 571.355 79.48C570.542 79 569.902 78.3467 569.435 77.52C568.975 76.6867 568.745 75.74 568.745 74.68C568.745 73.62 568.975 72.68 569.435 71.86C569.902 71.04 570.542 70.3967 571.355 69.93C572.175 69.4633 573.118 69.23 574.185 69.23C575.252 69.23 576.192 69.4633 577.005 69.93C577.825 70.3967 578.465 71.04 578.925 71.86C579.392 72.68 579.625 73.62 579.625 74.68C579.625 75.74 579.392 76.6867 578.925 77.52C578.465 78.3467 577.825 79 577.005 79.48C576.192 79.9533 575.252 80.19 574.185 80.19ZM574.185 78.63C574.918 78.63 575.565 78.4667 576.125 78.14C576.685 77.8133 577.122 77.3533 577.435 76.76C577.755 76.1667 577.915 75.4733 577.915 74.68C577.915 73.8867 577.755 73.2 577.435 72.62C577.122 72.0333 576.685 71.5833 576.125 71.27C575.565 70.95 574.918 70.79 574.185 70.79C573.458 70.79 572.812 70.95 572.245 71.27C571.685 71.5833 571.245 72.0333 570.925 72.62C570.612 73.2 570.455 73.8867 570.455 74.68C570.455 75.4733 570.612 76.1667 570.925 76.76C571.245 77.3533 571.685 77.8133 572.245 78.14C572.812 78.4667 573.458 78.63 574.185 78.63Z" fill="#828282"/>
<defs>
<linearGradient id="paint0_linear_369_6839" x1="26.7692" y1="28.4865" x2="81.1085" y2="29.173" gradientUnits="userSpaceOnUse">
<stop stop-color="#1BCFAF"/>
<stop offset="1" stop-color="#0A7763"/>
</linearGradient>
<linearGradient id="paint1_linear_369_6839" x1="265.604" y1="28.4865" x2="319.943" y2="29.173" gradientUnits="userSpaceOnUse">
<stop stop-color="#1BCFAF"/>
<stop offset="1" stop-color="#0A7763"/>
</linearGradient>
<linearGradient id="paint2_linear_369_6839" x1="504.769" y1="28.4865" x2="559.108" y2="29.173" gradientUnits="userSpaceOnUse">
<stop stop-color="#1BCFAF"/>
<stop offset="1" stop-color="#0A7763"/>
</linearGradient>
<clipPath id="clip0_369_6839">
<rect width="56.3294" height="56.3294" fill="white" transform="translate(11)"/>
</clipPath>
<clipPath id="clip1_369_6839">
<rect width="56.3294" height="56.3294" fill="white" transform="translate(249.835)"/>
</clipPath>
<clipPath id="clip2_369_6839">
<rect width="56.3294" height="56.3294" fill="white" transform="translate(489)"/>
</clipPath>
</defs>
</svg>
