<svg  viewBox="0 0 37 9" xmlns="http://www.w3.org/2000/svg"><path d="M4.499 0L.437 8.988h4.862l.603-1.433H7.28l.603 1.433h5.352V7.895l.477 1.093h2.768l.477-1.116v1.116h11.131l1.354-1.395 1.267 1.395L36.426 9l-4.074-4.48L36.426 0h-5.628L29.48 1.37 28.253 0H16.144l-1.04 2.32L14.04 0H9.187v1.057L8.648 0H4.499zm.94 1.276H7.81l2.694 6.096V1.276H13.1l2.081 4.37 1.918-4.37h2.583v6.45H18.11l-.012-5.054-2.292 5.054H14.4l-2.305-5.054v5.054H8.861L8.248 6.28H4.936l-.612 1.445H2.591l2.848-6.449zm15.682 0h6.392l1.955 2.112 2.018-2.112h1.955L30.47 4.518l2.971 3.204h-2.044l-1.955-2.136-2.028 2.136h-6.293V1.276zM6.592 2.368L5.501 4.944h2.181l-1.09-2.576zm16.107.244v1.177h3.487v1.312h-3.487v1.286h3.911l1.818-1.893-1.741-1.883h-3.988z" fill="#2478BC"/></svg>
