<svg viewBox="0 0 21 12" xmlns="http://www.w3.org/2000/svg"><g transform="translate(.181)" fill="none" fill-rule="evenodd"><path d="M9.469 4.003a33.228 33.228 0 0 1 4.114.253 3.84 3.84 0 0 0-7.125-.114c.981-.088 1.984-.139 3.011-.139zm0 1.894c-3.08-.02-6.145.424-9.094 1.314v3.822a.768.768 0 0 0 .766.767h17.718c.41 0 .75-.332.76-.747V7.568a30.02 30.02 0 0 0-10.15-1.67zm-2.76 3.48l.388.6h.502l-1.24-1.905h-.566L4.559 9.976h.485l.377-.599h1.288zm5.504-.565c.054 0 .108.003.161.009v-.235a.962.962 0 0 0-.135-.008.867.867 0 0 0-.722.3h-.021l-.017-.269h-.415a3.2 3.2 0 0 1 .022.427v.94h.469v-.729a.38.38 0 0 1 .021-.115.63.63 0 0 1 .637-.32zm2.042.992l.038.172h.431a1.038 1.038 0 0 1-.043-.327v-.512c0-.274-.194-.56-.992-.56a2.813 2.813 0 0 0-.857.122l.108.164c.22-.068.449-.103.679-.101.534 0 .593.203.593.316v.028c-1.008-.003-1.569.178-1.569.509 0 .197.27.392.798.392.281.014.558-.057.798-.203h.016zM9.9 9.976l-.027-.223h-.01a1.299 1.299 0 0 1-.863.254c-.41 0-.9-.118-.9-.599v-.8h.474v.758c0 .26.151.435.582.435a.813.813 0 0 0 .626-.226.223.223 0 0 0 .043-.127v-.84h.474v.995c-.002.125.005.25.022.373H9.9zM6.057 8.29h.011c.055.12.118.236.188.347l.356.548H5.518l.356-.55a3.96 3.96 0 0 0 .183-.345zm7.061 1.296c0 .162.205.238.447.238a.754.754 0 0 0 .631-.23.15.15 0 0 0 .027-.078v-.238c-.517-.005-1.105.043-1.105.308z" fill="#FFF100"/><path d="M.375 7.211V5.317a29.384 29.384 0 0 1 6.084-1.175 33.217 33.217 0 0 1 7.124.113c2.06.247 4.086.723 6.036 1.42v1.893a30.022 30.022 0 0 0-10.15-1.67c-3.08-.02-6.145.423-9.094 1.313z" fill="#EC1C24" fill-rule="nonzero"/><path d="M19.499 1.25v4.384a27.853 27.853 0 0 0-5.916-1.378 3.838 3.838 0 0 0-7.124-.114A29.375 29.375 0 0 0 .5 5.282V1.25A.75.75 0 0 1 1.25.5h17.5c.419 0 .749.336.749.75zm-5.287 7.856v-.028c0-.113-.059-.316-.593-.316a2.248 2.248 0 0 0-.679.101l-.108-.164c.278-.084.567-.125.857-.121.798 0 .992.285.992.56v.51c-.003.111.011.222.043.328h-.431l-.038-.172h-.016c-.24.146-.517.217-.798.203-.528 0-.798-.195-.798-.392 0-.33.561-.512 1.569-.509zm-.647.718c-.242 0-.447-.076-.447-.238 0-.265.588-.313 1.105-.308v.238a.15.15 0 0 1-.027.079.755.755 0 0 1-.631.229zM8.1 8.609v.8c0 .48.49.598.9.598.309.021.615-.07.863-.254h.01l.027.223h.421a2.449 2.449 0 0 1-.022-.373V8.61h-.474v.839a.223.223 0 0 1-.043.127.813.813 0 0 1-.626.226c-.431 0-.582-.175-.582-.435v-.757H8.1zm-.501 1.367l-1.24-1.904h-.566L4.559 9.976h.485l.377-.599h1.288l.388.6h.502zm-.987-.79l-.356-.549a3.064 3.064 0 0 1-.188-.347h-.011a3.96 3.96 0 0 1-.183.344l-.356.551h1.094zm4.943.061v.73h-.469v-.941a3.201 3.201 0 0 0-.022-.427h.415l.017.268h.021c.18-.209.448-.32.722-.3.046 0 .091.003.135.01v.234a1.331 1.331 0 0 0-.162-.009.629.629 0 0 0-.636.32.38.38 0 0 0-.021.115z" fill="#2E3191"/><path d="M18.75 0H1.25C.56 0 0 .56 0 1.25v9.5C0 11.44.56 12 1.25 12h17.5a1.25 1.25 0 0 0 1.249-1.25v-9.5c0-.69-.56-1.25-1.249-1.25zM.5 1.25A.75.75 0 0 1 1.25.5h17.5c.419 0 .749.336.749.75v9.5c0 .414-.33.75-.749.75H1.25a.75.75 0 0 1-.75-.75v-9.5z" fill="#FFF"/></g></svg>
