<svg width="32" height="32" viewBox="0 0 32 32" fill="none" xmlns="http://www.w3.org/2000/svg">
<path d="M0 16C0 7.16344 7.16344 0 16 0C24.8366 0 32 7.16344 32 16C32 24.8366 24.8366 32 16 32C7.16344 32 0 24.8366 0 16Z" fill="#F3F4F6"/>
<mask id="mask0_555_1078" style="mask-type:alpha" maskUnits="userSpaceOnUse" x="0" y="0" width="32" height="32">
<circle cx="16" cy="16" r="16" fill="#F3F4F6"/>
</mask>
<g mask="url(#mask0_555_1078)">
<path d="M32 27.9918V32.0012H0V28.0065C1.86127 25.5191 4.27721 23.5003 7.05572 22.1106C9.83423 20.7209 12.8987 19.9986 16.0053 20.0012C22.544 20.0012 28.352 23.1398 32 27.9918ZM21.336 11.9998C21.336 13.4143 20.7741 14.7709 19.7739 15.7711C18.7737 16.7713 17.4172 17.3332 16.0027 17.3332C14.5882 17.3332 13.2316 16.7713 12.2314 15.7711C11.2312 14.7709 10.6693 13.4143 10.6693 11.9998C10.6693 10.5853 11.2312 9.22879 12.2314 8.2286C13.2316 7.22841 14.5882 6.6665 16.0027 6.6665C17.4172 6.6665 18.7737 7.22841 19.7739 8.2286C20.7741 9.22879 21.336 10.5853 21.336 11.9998Z" fill="#D1D5DB"/>
</g>
</svg>
