<svg  viewBox="0 0 29 10" xmlns="http://www.w3.org/2000/svg"><g transform="translate(.71)" fill="none" fill-rule="evenodd"><path d="M0 5C0 3.54.692 2.154 1.692 1.231l1.385 1.538c-.616.539-1 1.308-1 2.231 0 .846.384 1.693 1 2.231L1.692 8.77C.692 7.847 0 6.462 0 5z" fill="#00A3DF" fill-rule="nonzero"/><path d="M10 6c-.462 2.308-2.539 4-5 4a5.855 5.855 0 0 1-1.616-.23l.692-1.924C4.384 7.923 4.692 8 5 8c1.462 0 2.616-1 2.923-2.385L10 6z" fill="#EF3F23" fill-rule="nonzero"/><path d="M3.462.23A5.853 5.853 0 0 1 5.077 0C7.54 0 9.54 1.692 10.078 4l-2.077.385a2.982 2.982 0 0 0-2.924-2.308c-.307 0-.615.077-.923.154l-.692-2z" fill="#FFCB08" fill-rule="nonzero"/><path d="M19.155 1.231v5.923c0 .308.076.539.23.77.154.153.308.307.54.384l1 .385.46-1.154-1-.462V1.231h-1.23zm5.537 2.692c-.23 0-.46 0-.615.077l-.385-1.153c.308-.077.692-.154 1-.154 1.462 0 2.692 1.077 3 2.461l-1.23.231c-.155-.846-.924-1.461-1.77-1.461zm-3.154 1.77c0-.924.385-1.693 1.077-2.308l.846.923c-.384.308-.615.846-.615 1.308 0 .538.231 1 .615 1.307l-.846.923a2.693 2.693 0 0 1-1.077-2.154zm6.154.615c-.308 1.384-1.538 2.461-3 2.461-.308 0-.692-.077-1-.153l.385-1.154c.154.077.384.077.615.077.846 0 1.615-.616 1.77-1.462l1.23.23zM15.615 3.923c.54 0 1.077.231 1.385.616l-3.23 1.384v-.23c0-1 .845-1.77 1.845-1.77zm0-1.308c1.462 0 2.616 1 3 2.385L13 7.385c-.308-.462-.539-1.077-.539-1.692.077-1.77 1.462-3.078 3.154-3.078zm-.077 6.077c.846 0 1.693-.307 2.231-.846l-.923-.923c-.308.385-.769.538-1.308.538-.307 0-.615-.153-.923-.307l-.692 1.077c.461.308 1 .461 1.615.461z" fill="#000"/></g></svg>
