<svg  viewBox="0 0 30 12" xmlns="http://www.w3.org/2000/svg"><g transform="translate(.731)" fill="none" fill-rule="evenodd"><path d="M28.615 0c-.588 2.791-1.162 5.507-1.736 8.223-.147.697-.295 1.415-.449 2.049C26.099 11.637 24.874 12 23.089 12H0c.613-2.825 1.181-5.787 1.822-8.669.126-.567.215-1.167.377-1.714C2.508.568 3.579.06 4.889 0h23.726z" fill="#961B1E"/><path d="M19.79 7.164c-.32.302-1.22.388-1.128-.335.076-.6.755-.728 1.49-.64a1.742 1.742 0 0 1-.362.975zm-1.012-2.342c-.031.166-.078.316-.116.474.367-.089 1.51-.36 1.62.111a.789.789 0 0 1-.072.446c-1.034-.094-1.876.072-2.098.78a.863.863 0 0 0 .333 1.074 1.415 1.415 0 0 0 1.606-.432 1.76 1.76 0 0 0-.044.446h.536c.014-.45.067-.897.159-1.338.097-.355.155-.72.173-1.087-.046-.765-1.361-.494-2.097-.474zm5.367 2.579c-.419.008-.627-.241-.637-.655-.016-.725.314-1.531.984-1.603a1.69 1.69 0 0 1 .767.111c-.21.815-.134 2.126-1.114 2.147zm1.388-3.833c-.05.435-.122.868-.217 1.296-1.526-.465-2.461.616-2.445 1.951-.015.251.062.5.218.697a1.45 1.45 0 0 0 1.533.126c.082-.06.155-.13.217-.21.04-.048.104-.176.116-.139-.03.143-.049.287-.058.432h.564c.152-1.396.384-2.783.694-4.153h-.622zM9.606 7.178c-.333.34-1.151.334-1.216-.237.003-.26.042-.518.116-.767.048-.26.083-.51.13-.738.328-.386 1.291-.433 1.389.209a2.07 2.07 0 0 1-.419 1.533zm.491-2.356a1.69 1.69 0 0 0-1.446.253l-.001-.002c.005-.093.039-.158.044-.25h-.536a93.566 93.566 0 0 1-.766 4.194h.622c.09-.536.149-1.1.275-1.603.142.528 1.069.427 1.461.223.807-.42 1.43-2.423.347-2.815zm2.315.307c.448-.017.769.158.636.697h-1.461a.851.851 0 0 1 .825-.697zm1.143 1.031c.093-.302.113-.622.058-.934-.141-.395-.645-.498-1.158-.46a1.655 1.655 0 0 0-1.099.433 2.36 2.36 0 0 0-.521 1.756c.112.965 1.36.93 2.358.697.017-.17.06-.315.087-.474a2.052 2.052 0 0 1-1.548.097c-.319-.194-.321-.687-.217-1.115.671-.02 1.368-.016 2.04 0zM6.987 4.822c-.017.003-.016.022-.015.042a39.299 39.299 0 0 1-.521 2.857h.623c.149-.994.32-1.967.535-2.899h-.622zm16.232.014a.966.966 0 0 0-1.187.446c.051-.137.054-.32.102-.46h-.55a41.646 41.646 0 0 1-.535 2.9h.636c.019-.353.068-.702.145-1.046.133-.805.328-1.687 1.302-1.422.032-.136.046-.29.087-.418zm-6.988 2.202a1.422 1.422 0 0 1-.058-.557c.017-.407.164-.798.42-1.115.447-.272 1-.303 1.475-.084.016-.166.051-.314.073-.474a2.422 2.422 0 0 0-2.054.377 2.314 2.314 0 0 0-.492 1.979c.223.706 1.227.744 2.04.474.035-.142.055-.3.086-.447-.444.223-1.292.338-1.49-.153zm-.347-2.216a.967.967 0 0 0-1.186.488c.046-.151.065-.328.101-.488h-.549c-.135 1.004-.333 1.947-.521 2.9h.622c.052-.631.159-1.256.318-1.868a.876.876 0 0 1 1.143-.6c.008-.159.056-.28.072-.432zM5.859 3.652a67.64 67.64 0 0 1-.29 1.644c-.644.007-1.302.031-1.924-.014.118-.532.202-1.097.318-1.63h-.694c-.249 1.358-.475 2.739-.752 4.07h.709c.111-.683.215-1.373.361-2.022.637-.029 1.274-.024 1.91.014-.12.675-.265 1.325-.376 2.007h.709c.227-1.378.467-2.745.752-4.07h-.723zm1.764.613c.124-.083.284-.458.101-.614a.47.47 0 0 0-.535.084c-.078.103-.15.414-.029.53.143.082.32.082.463 0z" fill="#FFF"/></g></svg>
