<svg width="32" height="32" viewBox="0 0 32 32" fill="none" xmlns="http://www.w3.org/2000/svg">
<path fill-rule="evenodd" clip-rule="evenodd" d="M25.9209 6.06784C24.6266 4.77288 23.0889 3.74672 21.3964 3.04843C19.7039 2.35014 17.89 1.99352 16.0591 1.99909C8.37532 1.99909 2.12032 8.22284 2.1172 15.8741C2.1138 18.3104 2.756 20.7041 3.97844 22.8116L2.00032 29.9991L9.39094 28.0697C11.4367 29.178 13.7268 29.758 16.0534 29.7572H16.0591C23.7422 29.7572 29.9966 23.5328 30.0003 15.8822C30.005 14.0576 29.6467 12.2502 28.9464 10.5653C28.246 8.88039 27.2176 7.35159 25.9209 6.06784V6.06784ZM16.0591 27.4153H16.0541C13.9799 27.4159 11.9435 26.8609 10.1566 25.8078L9.73344 25.5578L5.34782 26.7028L6.51844 22.4472L6.24282 22.0097C5.08306 20.1736 4.4686 18.0458 4.47094 15.8741C4.47094 9.51596 9.67157 4.34284 16.0634 4.34284C19.1297 4.33736 22.0725 5.55004 24.2447 7.71416C26.417 9.87828 27.6406 12.8166 27.6466 15.8828C27.6441 22.2416 22.4459 27.4153 16.0591 27.4153ZM22.4147 18.7785C22.0666 18.6047 20.3522 17.766 20.0347 17.6503C19.7172 17.5347 19.4828 17.4766 19.2509 17.8241C19.0191 18.1716 18.3509 18.9491 18.1478 19.1835C17.9447 19.4178 17.7416 19.4435 17.3934 19.2697C17.0453 19.096 15.9222 18.7303 14.5916 17.5491C13.5559 16.6297 12.8572 15.4947 12.6541 15.1478C12.4509 14.801 12.6322 14.6128 12.8066 14.4403C12.9634 14.2847 13.1547 14.0353 13.3291 13.8328C13.5034 13.6303 13.5616 13.4853 13.6772 13.2541C13.7928 13.0228 13.7353 12.8203 13.6484 12.6472C13.5616 12.4741 12.8647 10.7672 12.5747 10.0728C12.2916 9.39658 12.0047 9.48846 11.7909 9.47784C11.5878 9.46784 11.3534 9.46534 11.1228 9.46534C10.9465 9.46992 10.773 9.51081 10.6132 9.58544C10.4535 9.66007 10.3108 9.76684 10.1941 9.89908C9.87469 10.2466 8.97469 11.0866 8.97469 12.7916C8.97469 14.4966 10.2247 16.1466 10.3972 16.3778C10.5697 16.6091 12.8534 20.111 16.3478 21.6128C16.9967 21.8907 17.6597 22.1344 18.3341 22.3428C19.1684 22.6066 19.9278 22.5697 20.5278 22.4803C21.1972 22.381 22.5903 21.6416 22.8797 20.8316C23.1691 20.0216 23.1697 19.3278 23.0828 19.1835C22.9959 19.0391 22.7634 18.9516 22.4147 18.7785Z" fill="white"/>
</svg>
